<?xml version="1.0" encoding="utf-8"?>
<!-- Generator: Adobe Illustrator 18.1.0, SVG Export Plug-In . SVG Version: 6.00 Build 0)  -->
<!DOCTYPE svg PUBLIC "-//W3C//DTD SVG 1.1//EN" "http://www.w3.org/Graphics/SVG/1.1/DTD/svg11.dtd">
<svg version="1.1" id="Layer_1" xmlns="http://www.w3.org/2000/svg" xmlns:xlink="http://www.w3.org/1999/xlink" x="0px" y="0px"
	 viewBox="0 0 204.9 300.5" enable-background="new 0 0 204.9 300.5" xml:space="preserve">
<symbol  id="Regal_Vector_Pack_16" viewBox="-102.5 -150.2 204.9 300.5">
	<path fill="#231F20" d="M-54.8-24.2c0.7-1.5,1.2-3.9-1-6.3c0,0,5.3,2.3,3.7,7.2c1.2,0.8,1.6,2.2,0.9,3.8c2.9,0.1,5.9,0.4,8.9,0.7
		c-2.8,0.9-4.5,2.5-4.6,2.6l-4.1,4l5.5-1.5c1.1-0.3,2.2-0.4,3.3-0.4c7.2,0,14.7,5.7,16.2,10.5c0.6,1.9,0.1,3.3-1.4,4.4
		c-1.8,1.2-3.9,1.9-6,1.9c-4.8,0-8.8-3.2-8.8-3.2L-47.3-5l2.9,6c1,2.1,2.5,3.8,4.3,5.2c-1.2-0.3-2.4-0.6-3.8-1
		c-4.5-3.6-11.5-8.3-19.2-10.5c-3.6-0.3-8.6,0.4-11.4,5.7c-2.1,4-5,4.6-7.3,3.6c-2.8,2.3-7.7,4.7-12.8,0.1c0,0,5.1,3.1,10.4-2.4
		c-0.9-1.6-1.1-3.6,0.1-5.3c1-1.5,2.6-3.1,4.5-4.5c-0.9,0.5-1.8,1.1-2.6,1.9c-3.3,3.2-6.2,2.8-8,1.1C-93.6-3.8-99-3-102.5-8.9
		c0,0,3.9,4.5,10.6,1c-0.4-1.8,0-3.8,1.7-5.1c2-1.6,5.2-3,8.9-3.7c-0.9,0-1.9,0.1-2.9,0.4c-4.4,1.2-6.8-0.5-7.6-2.8
		c-3.6-0.5-8.7-2.3-8.9-9.2c0,0,1.3,5.8,8.9,5.9c0.5-1.8,1.8-3.3,3.9-3.6c0.1,0,0.3,0,0.4-0.1c1.4-0.4,3.3-0.4,5.4-0.1
		c0.5-1,6.9-2,11.3,2.6c1.7,1.8,3.3,2.6,4.7,2.8c0.2,0,0.4,0,0.6,0c0.8-0.3,1.7-0.7,2.6-1.2C-59.8-23.7-57-24.4-54.8-24.2z
		 M-66.6,69.3c-1.5-1-2.5-2.8-2.2-4.9c0-0.1,0.1-0.3,0.1-0.4c0-1.4,0.7-3.3,1.6-5.2c-0.8-0.8,0.3-7.2,6.1-9.9c2.3-1,3.5-2.3,4.2-3.5
		c0.1-0.2,0.1-0.4,0.2-0.6c0-0.9-0.1-1.8-0.3-2.9c-0.8-3.4-0.5-6.3,0.3-8.3c-1.2-1.1-3.3-2.3-6.3-1.1c0,0,3.9-4.3,8-1.2
		c1.1-0.8,2.6-0.8,3.9,0.4c1.2-3.2,2.6-6.4,4.2-9.6c3.4,3.3,7.9,5.6,13.8,7c3.5,0.9,7.2,1.3,10.9,1.6c-4.6,2.7-13.5,8.6-19.1,16.8
		c-1.4,3.3-2.4,8.3,1.8,12.6c3.1,3.3,2.8,6.3,1.1,8c1.3,3.4,2,8.8-3.9,12.2c0,0,4.5-3.9,1.1-10.6c-1.8,0.4-3.8-0.1-5-1.8
		c-1.1-1.4-2.1-3.4-2.8-5.7c0.2,1,0.5,2,1,3.1c2,4.1,0.7,6.8-1.5,8c0.2,3.6-0.8,9-7.5,10.3c0,0,5.5-2.3,4.3-9.7
		c-1.8-0.2-3.6-1.2-4.2-3.2c-0.8-2.4-1.2-5.9-0.7-9.6c-0.3,0.9-0.5,1.8-0.5,2.9c-0.2,4.5-2.6,6.3-5.1,6.3c-1.6,3.3-5,7.5-11.5,5.5
		C-75,75.8-69.1,76.4-66.6,69.3z M91.9,99.3c2.2,2.2,5.8,4.2,10.6,0.9c0,0-2.1,5.3-9.7,5.2c0,0,16.4,6-4.6,44.8
		c0,0-14.5-30.1-5.2-44.1c0,0-3.6,3.1-8.5-1.5c0,0,8.3-0.6,11.1-8.3c0-0.2,0-0.3,0-0.5c0-12.4-5.6-22.2-12.6-33
		c-1-1.6-2.1-3.2-3.2-4.9c-1.1,1.7-2.1,3.3-3.2,4.9c-7,10.8-12.6,20.6-12.6,33c0,0.3,0,0.7,0,1c2.9,7.2,10.9,7.8,10.9,7.8
		c-4.9,4.6-8.5,1.5-8.5,1.5c9.3,14-5.2,44.1-5.2,44.1c-21-38.8-4.5-44.8-4.5-44.8c-7.6,0.1-9.7-5.2-9.7-5.2
		c4.7,3.2,8.3,1.4,10.5-0.8c-1.6,0.5-4,0.4-7-1.8c0,0,6.3,1.7,8.2-5.8c0.8-3.1,2-7.2,3.8-11.6c2.5-7,6.4-13.4,10.6-19.9
		c1.4-2.1,2.8-4.3,4.2-6.5c-5.4-8.5-10.9-18-14.3-29.9c-2.3-7.9-3.2-14.9-3.2-21c0-12.8,4.1-21.9,8.2-27.7c1.3-1.8,2.6-3.4,3.8-4.6
		c-1.7-0.5-3.6-2.1-5.3-5.8c0,0,5.5,1.6,9.3-2.7c-0.9-5-2.5-8.1-4.1-9.9c-1.1-1.2-2.3-2-3.7-2.5c-1.3-0.5-2.8-0.7-4.3-0.7
		c-2.2,0-4.4,0.5-6.4,1c-2,9.3-13.9,16.8-22.9,21.4c-10.4,5.4-12.6,14.2-9.1,24c0.8-2,1.7-3.8,2.5-5.1c4-6.9,10.2-3.7,10.2-3.7
		c-6.5,1.8-5.3,5.5-4.6,15c0.2,2.5,0,4.7-0.4,6.5c0.3-0.7,0.7-1.3,1-1.9c4-6.9,10.2-3.7,10.2-3.7c-6.5,1.8-5.3,5.5-4.6,15
		c0.2,2,0.1,3.9-0.2,5.5c0.2-0.3,0.3-0.6,0.4-0.8c4-6.9,10.2-3.7,10.2-3.7c-6.5,1.8-5.3,5.5-4.6,15c0,0.3,0,0.6,0.1,0.9
		c3.3-1.6,6.4,0,6.4,0c-6.5,1.8-5.3,5.5-4.6,15c0.6,7.3-2.3,12.2-3.6,14c5,1.5,7.3,5.7,3.1,8.6c-3.4,2.3-6.9,2.2-9.6,1.6
		c3.1,2.3,2.7,5.2,2.7,5.2c-7.5-6.7-15.1-6.6-22.4-4.2C0.3,77.3-7.2,77.8-7,72.5c0-0.1,0-0.1,0-0.1c-2.7-0.5-9.6-2.5-14.8-10.6
		c0,0,1.9,0.2,3.4-2.2c1.4-2.4-1.4-8.2,7.1-10.9c0,0-2.2,1.8,0.2,3.7c2.4,1.9,7.1-2.4,13,3.7c0,0-1-3.2-2.6-3.8c0,0,4.3-6.9-1.1-13
		c0,0,1.1,1.6,0.2,3.2c-1,1.6-3.4-2.4-8.5,0.8c0,0-5.5-2.9-3.2-10.4c0,0,0.6,1.9,2.6,2.9c1.9,1,8.5-3.7,14,1.1
		c0.4,0.3,0.8,0.6,1.2,1c0.6-2.4,0.3-6.4-9.1-7.4c-13.5-1.4-34,0.6-43.3-11.9c0,0,5.8,5.5,13.8,4.2c0,0-5.8-0.3-10.7-3.8
		c-5-3.5-10.7-8.2-16.4-4.5c0,0,4-6.3,13.5-1.6c0,0-13-9-21.6-2.6c0,0,4.3-10.1,18.4-5.6C-37,9-32.5,9.3-26.1,7.3
		c0,0-12.2,2.9-17-6.9c0,0,8.3,6.9,16.5,1.4c8.2-5.4-7.1-20.4-19.2-17c0,0,4-3.8,10.1-2.6c0,0-6.9-16.7,8.2-18.6
		c0,0-10.6,6.4-0.6,17c0,0-5.6-10.3,3-12.3c0,0-3.5,3.4,1.3,9c-3.8-8.6,11-14.5,20.7-16.7c11.9-2.6,22.5-9.3,22.5-9.3
		c-2-5.6-1.5-10.8,0.5-14.7c-0.3-0.5-0.7-1-1.1-1.6c-3.3-3.7-9.6-12.5-6.3-24.1c4.3-15.4,2.1-22.6,2.1-22.6s3.8,3.8,3.8,10.7
		c0-0.9-0.2-13.7,11.9-15.8c0,0-6.9,2.9-7.2,12.8c0,0,4-11.4,18.4-5c0,0-8.6,0.4-12,5.1c3.3-1.8,10.4-4.1,18.6,2.9
		c0,0-5.7-1.2-10.5,0.6c7.5,1.7,14.3,7.1,16.9,10.7c3.4,4.6,9.9,0.1,11-7.7c-0.6-6.2-3-17.3-12-17.6c-9.7-0.4-14.1-0.9-15.7-3.9
		c-2.7-0.4-10.2-2.4-9.8-11.9c0,0,1.3,6.7,9.3,7.4c0.8-2.2,3.7-3.7,7.5-3.5c-1.5-1.1-2.7-2.4-3.2-3.7c-0.5-1.2-0.5-2.5-0.1-3.5
		c-1.8-2.3-5.5-8.7,1.1-15.2c0,0-3.8,6.2,2.4,12.4c2.2-0.5,5.3,0.3,8.8,3.3c0.5,0.4,0.9,0.8,1.4,1.3c-0.3-1.2-0.5-2.4-0.4-3.5
		c0.1-2,1-3.3,2.3-3.8c0.3-3.1,1.9-9.8,10.7-10.4c0,0-6.9,2.2-6.3,10.9c2.4,1.3,4.8,4,5.4,8.1c1.4,9.3,10.9,20.7,18.6,21.6
		c0,0-2.2,2.2-6.1,1.9c0,0,5.6,3.7,11.7-3.5c0,0-0.5,6.7-8.3,8.5c0,0,5,1.1,6.7,3.8c0,0-8.5,8.8-2.8,26.8c2.9-2.2,4.7-6.4,4.7-6.4
		c-1.1,19.4-15.2,17.6-15.2,17.6c1.9,1.8,7.4,2.1,7.4,2.1c-13.7,2.5-23.2-4.5-26.8-7.8c-2.4-1.7-5.1-3.7-8.2-6.1
		c-9.8-7.6-13.3-2-11.8,4.7c1.9,1.1,3.9,2.7,5.9,4.8c1.8,1.9,3,3.8,3.8,5.7c2.1-0.6,4.6-1,7.2-1c2.3,0,4.6,0.3,7,1.2
		c3.5,1.3,6.9,4,9.3,8.1c1.6,2.9,2.8,6.4,3.5,10.7c3.9,5.2,9.9,3.4,9.9,3.4c-1.7,3.9-3.7,5.4-5.4,5.9c1.2,1.2,2.5,2.7,3.7,4.5
		C85.9-18.8,90-9.7,90,3.1c0,6.1-0.9,13.1-3.2,21c-3.5,11.9-8.9,21.4-14.3,29.9c1.4,2.2,2.8,4.3,4.2,6.5c4.2,6.5,8.1,12.9,10.6,19.9
		c1.7,4.4,2.9,8.5,3.7,11.6c1.9,7.5,8.2,5.8,8.2,5.8C96,100,93.5,100,91.9,99.3z M30.5,67.9c2.4,1.6,2.3,2.8,0.9,3.4
		c2.3-0.4,3.6-1.2,2.9-2.5c-1.4-2.5-5.4-2.7-8.6-2.6C27.3,66.3,28.9,66.8,30.5,67.9z M-3.4,67.7c0,0,5.3,1.8,10.6,0
		c5.3-1.8,8.5-1,8.5-1s-2.9-3.8-8-3.8C2.6,62.9,6.3,67.9-3.4,67.7z M82.6,22.8c2.2-7.5,3.1-14.1,3.1-19.8c0-11.5-3.5-19.5-7.1-24.7
		c-1.4-2.1-2.9-3.7-4.1-5c-0.4,1.4-1.3,3-3.3,4.5c0,0,0.5-3.7-1.1-6.9h-0.2c-1.6,3.3-1.1,6.9-1.1,6.9c-2-1.5-3-3.2-3.3-4.6
		c-1.3,1.3-2.8,2.9-4.2,5.1C57.5-16.4,54-8.4,54,3.1c0,5.7,0.9,12.3,3,19.8c3.1,10.5,7.8,19.2,12.8,27.1
		C74.8,42,79.5,33.4,82.6,22.8z M10.5-89.6c-1,3.6-1.2,6.9-0.8,9.9c-1.6,0.6-3.2,1.2-5,1.9C-13.6-71,4-60.1,15.4-66
		c0.6,0.9,1.3,1.6,1.8,2.2c0.1,0.2,0.3,0.4,0.4,0.7c-1.7,4-1.9,8.9-0.5,13.6c-1.7,1-5.1,2.8-9.3,4.6c-2.4-0.6-5.2-1.8-8.3-3.6
		c0,0-1.5,0.3-3.9,0.3c-4.9,0.9-15.7,1.5-23.8-7.3c-10.8-11.8-18.1-13.7-18.1-13.7s5.1-1.2,10.9,2.2c-1.7-1.1-11.3-7.5-7-18.3
		c0,0-1.2,7.4,7.1,12.9c0,0-7.6-9.4,5.5-18.3c0,0-4.2,7.5-1.9,12.9c0.2-3.7,2-11,12.2-14.3c0,0-4.1,4.2-5,9.2
		c5.4-5.5,13.5-8.4,17.9-8.8c5.7-0.4,5.3-8.4-0.8-13.4c-5.6-2.7-16.2-6.6-21.3,0.9c-5.4,8.1-8.2,11.5-11.6,11.2
		c-1.7,2-7.4,7.4-15.3,2.1c0,0,6.4,2.4,11.2-4.1c-1.5-1.8-1.2-5,1-8.2c-1.7,0.7-3.4,1.1-4.8,0.8c-1.3-0.2-2.3-0.9-3-1.8
		c-2.9,0.3-10.3,0.1-12.4-8.9c0,0,3.2,6.5,11.8,4.5c0.8-2.2,3.1-4.4,7.4-5.7c0.6-0.2,1.2-0.3,1.8-0.5c-1.2-0.4-2.2-0.9-3.2-1.5
		c-1.7-1.1-2.2-2.6-2-4c-2.5-1.9-7.3-6.8-3.2-14.6c0,0-1.8,7,6,11.1c2.4-1.4,5.9-1.9,9.7-0.3c8.7,3.7,23.3,1.6,28.2-4.4
		c0,0,0.7,3.1-1.6,6.2c0,0,6.1-2.8,3.2-11.8c0,0,5.5,4,2.8,11.6c0,0,3.6-3.6,6.8-3.7c0,0,1,4,5.5,8.2c0.6-1.4,0.5-2.8,0.5-2.8
		c3.4,6.4,3.5,12.8,3.1,16.7C12.9-100.6,12.2-95.8,10.5-89.6z M-14.6,43.3c9.1,4.1,14.2,3,14.2,3c-7.6,2.3-15-1.7-22.6-3.5
		c-7.6-1.8-10.7,2.3-10.7,2.3C-31.1,39.2-23.7,39.2-14.6,43.3z"/>
</symbol>
<use xlink:href="#Regal_Vector_Pack_16"  width="204.9" height="300.5" x="-102.5" y="-150.2" transform="matrix(-1 0 0 -1 102.459 150.2295)" overflow="visible"/>
</svg>
