<?xml version="1.0" encoding="utf-8"?>
<!-- Generator: Adobe Illustrator 18.1.0, SVG Export Plug-In . SVG Version: 6.00 Build 0)  -->
<!DOCTYPE svg PUBLIC "-//W3C//DTD SVG 1.1//EN" "http://www.w3.org/Graphics/SVG/1.1/DTD/svg11.dtd">
<svg version="1.1" id="Artboard_1_1_" xmlns="http://www.w3.org/2000/svg" xmlns:xlink="http://www.w3.org/1999/xlink" x="0px"
	 y="0px" viewBox="0 0 319 61" enable-background="new 0 0 319 61" xml:space="preserve">
<g id="Your_Logo">
	<g>
		<path d="M24.8,34.2l14.9-25h1.9L25.6,35.6v16.2H24V35.6L8,9.2h2.1L24.8,34.2z"/>
		<path d="M75,33.7c0,3.7-0.7,7-2,9.8s-3.2,5-5.6,6.6c-2.4,1.6-5.3,2.3-8.4,2.3c-4.8,0-8.7-1.7-11.7-5.1c-3-3.4-4.5-8-4.5-13.8v-6.2
			c0-3.7,0.7-6.9,2-9.8c1.3-2.9,3.2-5.1,5.7-6.6c2.5-1.6,5.3-2.3,8.4-2.3c3.2,0,6,0.8,8.5,2.3c2.5,1.6,4.3,3.8,5.7,6.6
			c1.3,2.9,2,6.1,2,9.8V33.7z M73.4,27.3c0-5.2-1.3-9.3-3.9-12.4c-2.6-3.1-6.2-4.7-10.6-4.7c-4.4,0-7.9,1.5-10.5,4.6
			c-2.6,3.1-3.9,7.3-3.9,12.6v6.2c0,3.4,0.6,6.4,1.8,9c1.2,2.6,2.9,4.6,5.1,6c2.2,1.4,4.7,2.1,7.7,2.1c4.5,0,8-1.6,10.6-4.7
			c2.6-3.1,3.9-7.3,3.9-12.7V27.3z"/>
		<path d="M110.5,9.2v28.9c0,4.5-1.3,8-3.9,10.6c-2.6,2.5-6.2,3.8-10.6,3.8c-4.5,0-8-1.3-10.6-3.8c-2.6-2.5-3.9-6-4-10.4v-29h1.6V38
			c0,3.9,1.2,7.1,3.6,9.4c2.4,2.3,5.5,3.5,9.4,3.5s7.1-1.2,9.4-3.5c2.4-2.3,3.5-5.4,3.5-9.4V9.2H110.5z"/>
		<path d="M135,33.6h-14.8v18.3h-1.6V9.2h13.6c4.3,0,7.7,1.1,10.2,3.3c2.5,2.2,3.8,5.2,3.8,9c0,2.9-0.9,5.5-2.7,7.6
			c-1.8,2.2-4.1,3.5-6.9,4.1L148,51.4v0.4h-1.7L135,33.6z M120.2,32h13.4c3.3,0,5.9-1,8-3s3-4.5,3-7.5c0-3.3-1.1-5.9-3.4-7.9
			c-2.2-1.9-5.3-2.9-9.2-2.9h-11.9V32z"/>
		<path d="M174,43.9h17.9v7.9h-28.2V9.2H174V43.9z"/>
		<path d="M229.9,31.4c0,4.2-0.8,7.8-2.3,11c-1.5,3.2-3.7,5.7-6.6,7.4s-6.1,2.6-9.7,2.6s-6.9-0.8-9.7-2.5s-5-4.1-6.6-7.2
			s-2.4-6.7-2.5-10.7v-2.4c0-4.2,0.8-7.9,2.3-11.1s3.7-5.7,6.6-7.4c2.9-1.7,6.1-2.6,9.8-2.6c3.6,0,6.8,0.9,9.7,2.6
			c2.8,1.7,5,4.2,6.6,7.3c1.6,3.2,2.4,6.8,2.4,10.9V31.4z M219.5,29.6c0-4.2-0.7-7.5-2.1-9.7s-3.4-3.3-6.1-3.3
			c-5.2,0-7.9,3.9-8.2,11.6l0,3.1c0,4.2,0.7,7.4,2.1,9.6c1.4,2.2,3.4,3.4,6.2,3.4c2.6,0,4.6-1.1,6-3.3c1.4-2.2,2.1-5.4,2.1-9.5V29.6
			z"/>
		<path d="M269.5,46.6c-1.6,1.8-3.9,3.2-6.9,4.2s-6.4,1.6-10,1.6c-5.6,0-10-1.7-13.4-5.1c-3.3-3.4-5.1-8.2-5.4-14.3l0-3.7
			c0-4.2,0.7-7.9,2.2-11s3.6-5.5,6.4-7.2c2.8-1.7,6-2.5,9.6-2.5c5.3,0,9.4,1.2,12.4,3.6s4.7,6.1,5.1,10.9h-9.9
			c-0.4-2.4-1.1-4.1-2.3-5.1c-1.2-1-2.8-1.5-5-1.5c-2.6,0-4.6,1.1-6,3.3c-1.4,2.2-2.1,5.3-2.1,9.4v2.6c0,4.3,0.7,7.5,2.2,9.6
			s3.7,3.2,6.9,3.2c2.7,0,4.7-0.6,6-1.8v-6.6h-7.1V29h17.4V46.6z"/>
		<path d="M311,31.4c0,4.2-0.8,7.8-2.3,11c-1.5,3.2-3.7,5.7-6.6,7.4s-6.1,2.6-9.7,2.6s-6.9-0.8-9.7-2.5s-5-4.1-6.6-7.2
			c-1.6-3.1-2.4-6.7-2.5-10.7v-2.4c0-4.2,0.8-7.9,2.3-11.1c1.5-3.2,3.7-5.7,6.6-7.4c2.9-1.7,6.1-2.6,9.8-2.6c3.6,0,6.8,0.9,9.7,2.6
			c2.8,1.7,5,4.2,6.6,7.3c1.6,3.2,2.4,6.8,2.4,10.9V31.4z M300.6,29.6c0-4.2-0.7-7.5-2.1-9.7c-1.4-2.2-3.4-3.3-6.1-3.3
			c-5.2,0-7.9,3.9-8.2,11.6l0,3.1c0,4.2,0.7,7.4,2.1,9.6c1.4,2.2,3.4,3.4,6.2,3.4c2.6,0,4.6-1.1,6-3.3c1.4-2.2,2.1-5.4,2.1-9.5V29.6
			z"/>
	</g>
</g>
</svg>
